<?xml version="1.0" encoding="UTF-8" standalone="no"?>
<!-- Created with Inkscape (http://www.inkscape.org/) -->

<svg
   width="20.667473mm"
   height="23.313305mm"
   viewBox="0 0 20.667474 23.313306"
   version="1.1"
   id="svg1"
   inkscape:version="1.3 (0e150ed6c4, 2023-07-21)"
   sodipodi:docname="drawing.svg"
   xmlns:inkscape="http://www.inkscape.org/namespaces/inkscape"
   xmlns:sodipodi="http://sodipodi.sourceforge.net/DTD/sodipodi-0.dtd"
   xmlns="http://www.w3.org/2000/svg"
   xmlns:svg="http://www.w3.org/2000/svg">
  <sodipodi:namedview
     id="namedview1"
     pagecolor="#ffffff"
     bordercolor="#111111"
     borderopacity="1"
     inkscape:showpageshadow="0"
     inkscape:pageopacity="0"
     inkscape:pagecheckerboard="1"
     inkscape:deskcolor="#d1d1d1"
     inkscape:document-units="mm"
     inkscape:zoom="2.2904299"
     inkscape:cx="693.53792"
     inkscape:cy="666.25047"
     inkscape:window-width="1920"
     inkscape:window-height="1022"
     inkscape:window-x="0"
     inkscape:window-y="26"
     inkscape:window-maximized="1"
     inkscape:current-layer="g111" />
  <defs
     id="defs1" />
  <g
     inkscape:label="Layer 1"
     inkscape:groupmode="layer"
     id="layer1"
     transform="translate(-153.34546,-207.95696)">
    <g
       id="g109"
       style="fill:#ffff00;fill-opacity:1;stroke:#990000"
       transform="translate(1.5875)">
      <g
         id="g110"
         style="fill:#4d1230;stroke:#ffcb2f;stroke-width:1.6;stroke-linecap:butt;stroke-linejoin:miter;stroke-miterlimit:2.9;stroke-dasharray:none;stroke-dashoffset:70.61;paint-order:normal"
         inkscape:export-filename="tri_hindi_logo.png"
         inkscape:export-xdpi="96"
         inkscape:export-ydpi="96">
        <ellipse
           style="fill:none;fill-opacity:1;stroke:#ad8305;stroke-width:1.37469;stroke-linecap:butt;stroke-linejoin:miter;stroke-miterlimit:2.9;stroke-dasharray:none;stroke-dashoffset:70.61;paint-order:normal"
           id="path107"
           cx="100.22577"
           cy="64.649437"
           rx="37.430752"
           ry="37.074001"
           inkscape:export-filename="tri_hindi_logo.png"
           inkscape:export-xdpi="96"
           inkscape:export-ydpi="96" />
        <path
           id="ellipse109"
           style="fill:#ad8305;fill-opacity:1;stroke:none;stroke-width:1.6;stroke-linecap:butt;stroke-linejoin:miter;stroke-miterlimit:2.9;stroke-dasharray:none;stroke-dashoffset:70.61;paint-order:normal"
           d="m 106.32013,38.581624 c -3.76275,0 -6.769205,0.911533 -9.019092,2.734717 -2.249898,1.823184 -3.374988,4.247748 -3.374988,7.273458 0,1.163734 0.13567,2.230542 0.40721,3.200321 0.31033,0.969779 0.698254,1.881312 1.163753,2.734717 H 90.842 v 4.131531 h 5.179012 V 90.716943 H 100.7339 V 58.656368 h 5.99344 21.41264 v 13.091707 c -1.43528,-1.861975 -2.75434,-3.3358 -3.95686,-4.421952 -1.20253,-1.124944 -2.42409,-1.920407 -3.66541,-2.385901 -1.24132,-0.504285 -2.63776,-0.756543 -4.18941,-0.756543 -1.70682,0 -3.27813,0.233172 -4.71341,0.698666 -1.43527,0.426703 -2.81211,0.950304 -4.13101,1.570963 l 1.62884,4.30568 c 1.59044,-0.814614 2.9291,-1.376907 4.01526,-1.687235 1.12494,-0.31033 2.23044,-0.465605 3.31659,-0.465605 1.62923,0 3.02567,0.446222 4.18941,1.33842 1.20253,0.853405 2.61858,2.32723 4.2478,4.421952 l -14.31437,8.669755 2.73472,3.898987 14.83785,-9.834025 v 12.375472 a 43.565563,43.150341 0 0 0 4.71341,-7.208862 V 58.656368 h 4.52479 a 37.651291,37.292439 0 0 0 -0.92656,-4.131531 h -4.90978 c -3.01026,-4.77097 -6.5657,-8.597446 -10.67532,-11.462866 -4.22823,-2.986919 -9.07684,-4.480347 -14.54639,-4.480347 z m 0.98908,4.189409 c 7.01423,0 13.44619,3.924269 19.29908,11.753804 h -19.88095 -6.28438 C 99.977474,53.865388 99.550849,53.10913 99.162939,52.255725 98.81382,51.363529 98.639457,50.33541 98.639457,49.171676 c 0,-1.978348 0.756253,-3.53007 2.269113,-4.655013 1.55165,-1.163735 3.68526,-1.74563 6.40064,-1.74563 z" />
        <g
           id="g111"
           inkscape:export-filename="tri_hindi_logo.png"
           inkscape:export-xdpi="96"
           inkscape:export-ydpi="96"
           transform="translate(12.55559,15.950067)">
          <path
             id="rect110"
             style="fill:#721c24;fill-opacity:1;stroke:none;stroke-width:0.7;stroke-linecap:butt;stroke-linejoin:miter;stroke-miterlimit:2.9;stroke-dasharray:none;stroke-dashoffset:266.872;stroke-opacity:1;paint-order:normal"
             d="m 43.559615,152.34677 v 23.35103 h 6.607349 v -10.88564 h -6.520533 v -1.4025 h 6.342766 c -0.158045,-0.28975 -0.289445,-0.59936 -0.394808,-0.92862 -0.09219,-0.32926 -0.138493,-0.69165 -0.138493,-1.08676 0,-1.02729 0.381784,-1.85009 1.145666,-2.4691 0.763883,-0.61901 1.784818,-0.92862 3.062346,-0.92862 1.857024,0 3.503144,0.50723 4.938717,1.52135 1.395371,0.97292 2.602505,2.27179 3.624584,3.89175 h 2.245341 v -11.06289 z m 10.44019,7.07192 c -0.921927,0 -1.646179,0.19762 -2.172994,0.59273 -0.513645,0.38194 -0.770496,0.90909 -0.770496,1.58078 0,0.39511 0.05924,0.74406 0.177767,1.04697 0.131704,0.28975 0.276554,0.5466 0.434599,0.77049 h 2.13372 6.749975 c -1.98723,-2.65846 -4.171024,-3.99097 -6.552571,-3.99097 z m -2.232422,5.39347 v 10.88564 h 9.304858 v -4.62297 l -5.037418,3.33881 -0.928626,-1.32395 4.859652,-2.94349 c -0.553157,-0.7112 -1.034007,-1.21145 -1.442289,-1.5012 -0.395112,-0.30292 -0.868979,-0.45475 -1.422136,-0.45475 -0.36877,0 -0.744089,0.0528 -1.126029,0.15813 -0.368771,0.10537 -0.823238,0.29652 -1.363225,0.57309 l -0.552937,-1.46192 c 0.447793,-0.21073 0.915193,-0.38844 1.402498,-0.5333 0.487304,-0.15805 1.020405,-0.2372 1.599902,-0.2372 0.526816,0 1.0012,0.0856 1.422652,0.25683 0.421453,0.15805 0.836086,0.42783 1.244369,0.80977 0.408282,0.36877 0.856283,0.86954 1.343587,1.50172 v -4.44521 h -7.26984 z m 10.905277,0 v 10.88564 h 1.79989 v -10.88564 z"
             inkscape:export-filename="tri_hindi_logo.png"
             inkscape:export-xdpi="96"
             inkscape:export-ydpi="96" />
          <rect
             style="fill:#fed1aa;stroke:none;stroke-width:0.448086;stroke-miterlimit:2.9;stroke-dashoffset:266.872"
             id="rect1"
             width="9.1662893"
             height="27.527576"
             x="109.38132"
             y="163.43459" />
          <rect
             style="fill:#fed1aa;stroke:none;stroke-width:0.595321;stroke-miterlimit:2.9;stroke-dashoffset:266.872"
             id="rect2"
             width="49.310009"
             height="1.5408258"
             x="71.292488"
             y="172.82927" />
          <path
             id="text1"
             style="font-size:19.7556px;font-family:'Noto Sans Devanagari UI';-inkscape-font-specification:'Noto Sans Devanagari UI';fill:#721c24;stroke:none;stroke-width:0.7;stroke-dashoffset:266.872"
             d="m 140.93427,141.66099 v 23.3133 h 6.31279 v -10.88564 h -6.31279 v -1.4025 h 6.20685 c 0,0 5e-5,-5.92894 6.3154,-5.95684 6.1738,-0.0273 6.32097,5.97777 6.31536,5.95684 h 1.82986 v -11.02516 z m 20.66747,11.02516 v 1.4025 h 0.185 1.28416 v 3.8132 c 0,0.84291 0.0791,1.50792 0.23719,1.99523 0.15804,0.47413 0.40197,0.88877 0.73123,1.24437 0.27658,0.27658 0.62551,0.50704 1.04696,0.69143 0.43462,0.17122 0.91495,0.25683 1.44177,0.25683 0.61901,0 1.15263,-0.0856 1.60042,-0.25683 0.4478,-0.17121 0.86294,-0.38176 1.24489,-0.632 v 3.77341 h 1.5999 v -10.88564 h 2.05465 0.011 v 10.88564 h 1.60042 v -10.88564 h 3.48543 3.33623 v 2.58796 h -0.0594 c -0.81656,0 -1.59357,0.15183 -2.33112,0.45475 -0.72437,0.30292 -1.31076,0.75688 -1.75855,1.36271 -0.44779,0.59266 -0.67128,1.33036 -0.67128,2.21278 0,1.35655 0.45395,2.41034 1.36271,3.16105 0.90876,0.73754 2.1074,1.10639 3.59564,1.10639 0.86925,0 1.66619,-0.13191 2.39056,-0.39532 0.72436,-0.27658 1.30377,-0.6982 1.73839,-1.26453 0.43462,-0.5795 0.65216,-1.33013 0.65216,-2.25206 0,-0.96143 -0.28971,-1.81062 -0.8692,-2.54816 -0.5795,-0.75071 -1.39635,-1.32365 -2.44998,-1.71876 v -2.70681 h 4.52427 1.46193 v 10.88564 h 1.5999 v -10.88564 h 2.03502 v -1.4025 c 0,0 -2.03503,1e-5 -2.15336,0 0,-4.46698 -2.46492,-5.95538 -4.485,-5.95538 -2.38402,0 -4.57853,1.51114 -4.57853,5.95538 h -3.34036 -5.09685 -11.24117 z m 0,1.4025 h -1.8495 v 10.88564 h 1.8495 z m -12.85348,-1.4025 h 2.13372 7.23263 c 0,0 -0.0687,-4.46825 -4.65281,-4.46698 -4.71354,0.001 -4.71354,4.46698 -4.71354,4.46698 z m 40.29886,1e-5 -1.46196,-1e-5 h -4.5005 c 0,0 -0.38329,-4.46698 2.99251,-4.46698 3.13036,0 2.96995,4.46699 2.96995,4.46699 z m -40.20016,1.40249 v 10.88564 h 9.30486 v -4.62297 l -5.03742,3.33881 -2.56845,0.003 6.49948,-4.27052 c -1.51017,-1.94166 -4.15631,-2.35385 -6.41201,-1.22473 l -0.0433,-1.81128 c 2.78508,-1.53986 5.78406,-0.12938 7.56173,2.14718 v -4.44521 h -3.63492 -3.63492 z m 15.82436,0 h 4.70204 v 5.35368 c -0.32926,0.32926 -0.72449,0.61947 -1.18546,0.86971 -0.46096,0.25023 -0.95474,0.37517 -1.48156,0.37517 -0.65852,0 -1.13937,-0.15132 -1.44229,-0.45423 -0.14487,-0.14488 -0.26334,-0.30965 -0.35554,-0.49403 -0.079,-0.19756 -0.13826,-0.45441 -0.17776,-0.77049 -0.0395,-0.31609 -0.0594,-0.74417 -0.0594,-1.28416 z m 17.1452,3.99097 c 1.31418,0 1.95586,0.56207 2.53999,1.24437 0.38873,0.45405 0.42314,1.06694 0.42314,1.69912 0,0.88241 -0.30962,1.52751 -0.92863,1.9358 -0.61901,0.39511 -1.39603,0.59273 -2.33112,0.59273 -0.94827,0 -1.73823,-0.22401 -2.3704,-0.6718 -0.61901,-0.44779 -0.92862,-1.1322 -0.92862,-2.05413 0,-0.51364 0.10553,-0.94871 0.31626,-1.30432 0.2239,-0.36877 0.52006,-0.66493 0.88883,-0.88883 0.61901,-0.36877 1.41594,-0.55294 2.39055,-0.55294 z"
             sodipodi:nodetypes="cccccccsccccccccscccssccccccccccccsccscsccscccccccccccscccccccccccccsccccsccccccccccccccccccssscsscssscscsccs" />
          <path
             id="rect9"
             style="fill:#4f1319;stroke:none;stroke-width:0.7;stroke-miterlimit:2.9;stroke-dashoffset:266.872"
             d="m 61.992314,103.33244 v 27.91509 h 11.05824 v -10.88512 h -1.758032 v -1.40302 h 1.580265 c -0.158044,-0.28975 -0.289444,-0.59936 -0.394808,-0.92862 -0.09219,-0.32926 -0.138493,-0.69114 -0.138493,-1.08624 0,-1.0273 0.381784,-1.85061 1.145667,-2.46962 0.763882,-0.61901 1.784817,-0.92863 3.062345,-0.92863 1.857025,0 3.503144,0.50724 4.938717,1.52136 1.395212,0.97281 2.602063,2.27205 3.624068,3.89175 h 2.247408 v -15.62695 z m 25.365377,15.62695 v 1.40302 h 0.233061 1.284159 v 3.81268 c 0,0.84291 0.07915,1.50792 0.237195,1.99523 0.158045,0.47413 0.401445,0.88877 0.730705,1.24437 0.276578,0.27658 0.626029,0.50756 1.047481,0.69195 0.434623,0.17121 0.914957,0.25631 1.441773,0.25631 0.619008,0 1.152625,-0.0851 1.600419,-0.25631 0.447793,-0.17122 0.862427,-0.38228 1.244368,-0.63252 v 3.77341 h 1.600419 v -10.88512 h 2.054655 1.461924 v 10.88512 h 1.5999 v -10.88512 h 2.03502 5.45238 v 2.58795 h -0.0589 c -0.81656,0 -1.59358,0.15132 -2.33112,0.45424 -0.72437,0.30292 -1.31076,0.75739 -1.75855,1.36322 -0.44779,0.59267 -0.67179,1.32985 -0.67179,2.21227 0,1.35655 0.45446,2.41033 1.36322,3.16105 0.90876,0.73754 2.10739,1.10639 3.59565,1.10639 0.86924,0 1.66618,-0.13192 2.39055,-0.39532 0.72437,-0.27658 1.30377,-0.69768 1.73839,-1.26401 0.43462,-0.5795 0.65164,-1.33013 0.65164,-2.25206 0,-0.96144 -0.2897,-1.81114 -0.86919,-2.54868 -0.5795,-0.75071 -1.39584,-1.32365 -2.44947,-1.71876 v -2.70629 h 4.52376 1.46192 v 10.88512 h 1.60042 v -10.88512 h 2.03502 v -1.40302 h -2.15336 c -0.73754,-1.80434 -1.58724,-3.1543 -2.54868,-4.04988 -0.96144,-0.90876 -2.16007,-1.36323 -3.59564,-1.36323 -1.11948,0 -1.99505,0.29022 -2.62723,0.86972 -0.63218,0.56633 -0.94827,1.31696 -0.94827,2.25206 0,0.43462 0.0592,0.84925 0.17777,1.24437 0.0931,0.34895 0.23404,0.69801 0.40928,1.04696 h -5.38779 -5.096844 -11.241174 z m 0,1.40302 h -1.80144 v 10.88512 h 1.80144 z m 25.125079,-5.41311 c 0.90876,0 1.71216,0.32902 2.41019,0.98754 0.69803,0.64534 1.36305,1.65283 1.99523,3.02255 h -1.38235 -4.57388 c -0.14188,-0.27411 -0.27213,-0.55611 -0.38499,-0.84956 -0.14488,-0.35561 -0.21755,-0.75032 -0.21755,-1.18494 0,-0.60584 0.19114,-1.08669 0.57309,-1.44229 0.36876,-0.3556 0.8954,-0.5333 1.58026,-0.5333 z m -35.599375,0.0196 c -0.921927,0 -1.646178,0.19762 -2.172994,0.59273 -0.513645,0.38194 -0.770495,0.90857 -0.770495,1.58026 0,0.39511 0.05923,0.74405 0.177767,1.04697 0.131703,0.28974 0.276554,0.54659 0.434598,0.77049 h 2.13372 6.745325 c -1.986195,-2.65501 -4.16792,-3.99045 -6.547921,-3.99045 z m -2.232422,5.39347 v 10.88512 h 9.304859 v -4.62297 l -5.037419,3.33881 -0.928625,-1.32343 4.859651,-2.94349 c -0.553156,-0.71121 -1.034007,-1.21197 -1.442289,-1.50172 -0.395112,-0.30292 -0.868979,-0.45424 -1.422135,-0.45424 -0.368771,0 -0.744088,0.0528 -1.12603,0.15813 -0.36877,0.10536 -0.823238,0.296 -1.363224,0.57258 l -0.552938,-1.46193 c 0.447794,-0.21072 0.915194,-0.38842 1.402498,-0.5333 0.487305,-0.15804 1.020406,-0.23719 1.599903,-0.23719 0.526815,0 1.001199,0.0856 1.422652,0.25683 0.421452,0.15805 0.836087,0.42835 1.244368,0.81029 0.408283,0.36877 0.856284,0.86902 1.343588,1.5012 v -4.44469 h -7.269841 z m 15.824357,0 h 4.701522 v 5.35367 c -0.329259,0.32926 -0.723977,0.61896 -1.18494,0.8692 -0.460964,0.25024 -0.955265,0.37517 -1.48208,0.37517 -0.65852,0 -1.138854,-0.15132 -1.441773,-0.45423 -0.144874,-0.14488 -0.263858,-0.30965 -0.356051,-0.49403 -0.07902,-0.19756 -0.138253,-0.45441 -0.177766,-0.7705 -0.03951,-0.31609 -0.05891,-0.74417 -0.05891,-1.28415 z m 19.26136,3.99045 h 0.69194 c 0.75072,0.31609 1.31667,0.73072 1.69861,1.24437 0.38194,0.50047 0.57309,1.06694 0.57309,1.69912 0,0.88241 -0.30962,1.52803 -0.92863,1.93632 -0.61901,0.39511 -1.39603,0.59221 -2.33112,0.59221 -0.94827,0 -1.73822,-0.22349 -2.3704,-0.67128 -0.61901,-0.44779 -0.92862,-1.13272 -0.92862,-2.05465 0,-0.51364 0.10501,-0.94819 0.31574,-1.3038 0.2239,-0.36877 0.52059,-0.66545 0.88935,-0.88935 0.61901,-0.36877 1.41543,-0.55294 2.39004,-0.55294 z" />
          <path
             d="m 73.050736,186.50843 h -1.758248 v -1.40264 h 1.652782 c 0,0 0.105429,-5.96662 6.297983,-5.96662 6.313811,0 6.352375,5.96662 6.341675,6.10491 h -1.65947 c 0,-6.12949 -9.373296,-6.12949 -9.373296,-0.13829 h 2.133605 v 1.40264 H 74.65094 v 10.88534 h -1.600204 z m 6.252655,10.88534 h -2.150519 l 5.696658,-5.55132 -5.984936,-2.17084 v -1.59369 l 7.091249,2.58213 v -4.15162 h -7.546639 v -1.40264 h 11.18167 v 1.40264 h -2.034827 v 10.88534 h -1.600204 v -4.62281 z m 17.473838,-10.88534 v 10.88534 h -1.600203 v -3.77332 c -0.381942,0.25024 -0.79681,0.46097 -1.244603,0.63218 -0.447794,0.17121 -0.981195,0.25682 -1.600204,0.25682 -0.526816,0 -1.007536,-0.0856 -1.442159,-0.25682 -0.421453,-0.18439 -0.770468,-0.41487 -1.047046,-0.69145 -0.32926,-0.3556 -0.572913,-0.77047 -0.730958,-1.2446 -0.158045,-0.48731 -0.237067,-1.15241 -0.237067,-1.99532 v -3.81283 h -1.560692 v -1.40264 h 11.517515 v 1.40264 z m -1.600203,0 h -4.701833 v 3.59552 c 0,0.53999 0.01976,0.96803 0.05927,1.28412 0.03951,0.31609 0.09878,0.57291 0.1778,0.77047 0.09219,0.18438 0.210726,0.34901 0.355601,0.49389 0.302919,0.30291 0.783639,0.45437 1.442159,0.45437 0.526816,0 1.020706,-0.12512 1.48167,-0.37535 0.460964,-0.25024 0.856076,-0.53999 1.185336,-0.86925 z m 6.716914,0 v 10.88534 h -1.6002 v -10.88534 h -1.758248 v -1.40264 h 5.393278 v 1.40264 z m 13.61163,0 h -4.52404 v 2.70652 c 1.05363,0.39511 1.8702,0.96803 2.4497,1.71874 0.57949,0.73754 0.86924,1.58703 0.86924,2.54847 0,0.92193 -0.21731,1.67264 -0.65193,2.25214 -0.43462,0.56633 -1.01412,0.98778 -1.73849,1.26436 -0.72437,0.26341 -1.52118,0.39511 -2.39043,0.39511 -1.48825,0 -2.68676,-0.36877 -3.59552,-1.10631 -0.90876,-0.75071 -1.36314,-1.80435 -1.36314,-3.1609 0,-0.88242 0.2239,-1.61996 0.67169,-2.21263 0.44779,-0.60583 1.03388,-1.06021 1.75825,-1.36313 0.73755,-0.30292 1.5146,-0.45438 2.33116,-0.45438 h 0.0593 v -2.58799 h -5.72912 v -1.40264 h 11.85336 z m -6.06497,9.46294 c 0.93509,0 1.71215,-0.19756 2.33116,-0.59267 0.61901,-0.40829 0.92851,-1.05364 0.92851,-1.93605 0,-0.63218 -0.19097,-1.19851 -0.57291,-1.69898 -0.38194,-0.51365 -0.94827,-0.92851 -1.69898,-1.2446 h -0.69145 c -0.97461,0 -1.77142,0.18438 -2.39043,0.55315 -0.36877,0.2239 -0.6651,0.52023 -0.889,0.889 -0.21073,0.35561 -0.31609,0.79023 -0.31609,1.30387 0,0.92193 0.30951,1.6068 0.92852,2.05459 0.63217,0.44779 1.4224,0.67169 2.37067,0.67169 z m 7.52687,-9.46294 h -1.75825 v -1.40264 h 1.67922 c 0,-5.9912 -5.88717,-5.9912 -5.88717,0.13829 h -1.61995 c 0,0 0,-6.12948 4.58314,-6.12948 4.58315,0 4.48468,5.99119 4.48468,5.99119 h 2.15336 v 1.40264 h -2.03483 v 10.88534 h -1.6002 z"
             id="path2"
             style="font-size:19.7556px;font-family:'Noto Sans Devanagari UI';-inkscape-font-specification:'Noto Sans Devanagari UI';fill:#721c24;stroke:none;stroke-width:0.7;stroke-dashoffset:266.872"
             aria-label="त्रिपाठी"
             sodipodi:nodetypes="ccccscccccccccccccccccccccccccccccsscccsccccccccsscssscccccccccccccccsccscsccsccccccscsccsccscsccccccsccccccc" />
          <rect
             style="fill:#fed1aa;stroke:none;stroke-width:0.7;stroke-miterlimit:2.9;stroke-dashoffset:266.872"
             id="rect4"
             width="9.304903"
             height="6.0159282e-14"
             x="74.65094"
             y="197.39377" />
          <rect
             style="fill:#fed1aa;stroke:none;stroke-width:0.7;stroke-miterlimit:2.9;stroke-dashoffset:266.872"
             id="rect8"
             width="1.1063099"
             height="0.92850703"
             x="67.596321"
             y="193.47055" />
          <path
             d="m 139.20236,192.0069 v 23.3133 h 6.31279 v -10.88564 h -6.31279 v -1.4025 h 6.20685 c 0,0 5e-5,-5.92894 6.3154,-5.95684 6.1738,-0.0273 6.32097,5.97777 6.31536,5.95684 h 1.82986 V 192.0069 Z m 20.66747,11.02516 v 1.4025 z m 0,1.4025 h -1.8495 v 10.88564 h 1.8495 z m -12.85348,-1.4025 h 2.13372 7.23263 c 0,0 -0.0687,-4.46825 -4.65281,-4.46698 -4.71354,0.001 -4.71354,4.46698 -4.71354,4.46698 z m 0.0987,1.4025 v 10.88564 h 9.30486 v -4.62297 l -5.03742,3.33881 -2.56845,0.003 6.49948,-4.27052 c -1.51017,-1.94166 -4.15631,-2.35385 -6.41201,-1.22473 l -0.0433,-1.81128 c 2.78508,-1.53986 5.78406,-0.12938 7.56173,2.14718 v -4.44521 h -3.63492 -3.63492 z"
             style="font-size:19.7556px;font-family:'Noto Sans Devanagari UI';-inkscape-font-specification:'Noto Sans Devanagari UI';fill:#721c24;stroke:none;stroke-width:0.7;stroke-dashoffset:266.872"
             id="path1"
             sodipodi:nodetypes="cccccccsccccccccccccccccccccccccccccccc"
             inkscape:export-filename="Dev/MyPortfolio/static/images/tri_hindi_logo.png"
             inkscape:export-xdpi="96"
             inkscape:export-ydpi="96" />
        </g>
      </g>
    </g>
  </g>
</svg>
