<?xml version="1.0" encoding="UTF-8" standalone="no"?>
<!-- Created with Inkscape (http://www.inkscape.org/) -->

<svg
   width="21.822958mm"
   height="27.185938mm"
   viewBox="0 0 21.822959 27.185939"
   version="1.1"
   id="svg1"
   inkscape:version="1.3 (0e150ed6c4, 2023-07-21)"
   sodipodi:docname="drawing.svg"
   xmlns:inkscape="http://www.inkscape.org/namespaces/inkscape"
   xmlns:sodipodi="http://sodipodi.sourceforge.net/DTD/sodipodi-0.dtd"
   xmlns="http://www.w3.org/2000/svg"
   xmlns:svg="http://www.w3.org/2000/svg">
  <sodipodi:namedview
     id="namedview1"
     pagecolor="#ffffff"
     bordercolor="#111111"
     borderopacity="1"
     inkscape:showpageshadow="0"
     inkscape:pageopacity="0"
     inkscape:pagecheckerboard="1"
     inkscape:deskcolor="#d1d1d1"
     inkscape:document-units="mm"
     inkscape:zoom="2.2904299"
     inkscape:cx="693.53792"
     inkscape:cy="666.25047"
     inkscape:window-width="1920"
     inkscape:window-height="1022"
     inkscape:window-x="0"
     inkscape:window-y="26"
     inkscape:window-maximized="1"
     inkscape:current-layer="g111" />
  <defs
     id="defs1" />
  <g
     inkscape:label="Layer 1"
     inkscape:groupmode="layer"
     id="layer1"
     transform="translate(-15.581478,-148.27364)">
    <g
       id="g109"
       style="fill:#ffff00;fill-opacity:1;stroke:#990000"
       transform="translate(1.5875)">
      <g
         id="g110"
         style="fill:#4d1230;stroke:#ffcb2f;stroke-width:1.6;stroke-linecap:butt;stroke-linejoin:miter;stroke-miterlimit:2.9;stroke-dasharray:none;stroke-dashoffset:70.61;paint-order:normal"
         inkscape:export-filename="tri_hindi_logo.png"
         inkscape:export-xdpi="96"
         inkscape:export-ydpi="96">
        <ellipse
           style="fill:none;fill-opacity:1;stroke:#ad8305;stroke-width:1.37469;stroke-linecap:butt;stroke-linejoin:miter;stroke-miterlimit:2.9;stroke-dasharray:none;stroke-dashoffset:70.61;paint-order:normal"
           id="path107"
           cx="100.22577"
           cy="64.649437"
           rx="37.430752"
           ry="37.074001"
           inkscape:export-filename="tri_hindi_logo.png"
           inkscape:export-xdpi="96"
           inkscape:export-ydpi="96" />
        <path
           id="ellipse109"
           style="fill:#ad8305;fill-opacity:1;stroke:none;stroke-width:1.6;stroke-linecap:butt;stroke-linejoin:miter;stroke-miterlimit:2.9;stroke-dasharray:none;stroke-dashoffset:70.61;paint-order:normal"
           d="m 106.32013,38.581624 c -3.76275,0 -6.769205,0.911533 -9.019092,2.734717 -2.249898,1.823184 -3.374988,4.247748 -3.374988,7.273458 0,1.163734 0.13567,2.230542 0.40721,3.200321 0.31033,0.969779 0.698254,1.881312 1.163753,2.734717 H 90.842 v 4.131531 h 5.179012 V 90.716943 H 100.7339 V 58.656368 h 5.99344 21.41264 v 13.091707 c -1.43528,-1.861975 -2.75434,-3.3358 -3.95686,-4.421952 -1.20253,-1.124944 -2.42409,-1.920407 -3.66541,-2.385901 -1.24132,-0.504285 -2.63776,-0.756543 -4.18941,-0.756543 -1.70682,0 -3.27813,0.233172 -4.71341,0.698666 -1.43527,0.426703 -2.81211,0.950304 -4.13101,1.570963 l 1.62884,4.30568 c 1.59044,-0.814614 2.9291,-1.376907 4.01526,-1.687235 1.12494,-0.31033 2.23044,-0.465605 3.31659,-0.465605 1.62923,0 3.02567,0.446222 4.18941,1.33842 1.20253,0.853405 2.61858,2.32723 4.2478,4.421952 l -14.31437,8.669755 2.73472,3.898987 14.83785,-9.834025 v 12.375472 a 43.565563,43.150341 0 0 0 4.71341,-7.208862 V 58.656368 h 4.52479 a 37.651291,37.292439 0 0 0 -0.92656,-4.131531 h -4.90978 c -3.01026,-4.77097 -6.5657,-8.597446 -10.67532,-11.462866 -4.22823,-2.986919 -9.07684,-4.480347 -14.54639,-4.480347 z m 0.98908,4.189409 c 7.01423,0 13.44619,3.924269 19.29908,11.753804 h -19.88095 -6.28438 C 99.977474,53.865388 99.550849,53.10913 99.162939,52.255725 98.81382,51.363529 98.639457,50.33541 98.639457,49.171676 c 0,-1.978348 0.756253,-3.53007 2.269113,-4.655013 1.55165,-1.163735 3.68526,-1.74563 6.40064,-1.74563 z" />
        <g
           id="g111"
           inkscape:export-filename="tri_hindi_logo.png"
           inkscape:export-xdpi="96"
           inkscape:export-ydpi="96"
           transform="translate(12.55559,15.950067)">
          <path
             id="rect110"
             style="fill:#721c24;fill-opacity:1;stroke:none;stroke-width:0.7;stroke-linecap:butt;stroke-linejoin:miter;stroke-miterlimit:2.9;stroke-dasharray:none;stroke-dashoffset:266.872;stroke-opacity:1;paint-order:normal"
             d="m 82.901273,111.89144 v 23.35103 h 6.607349 v -10.88564 h -6.520533 v -1.4025 h 6.342766 c -0.158045,-0.28975 -0.289445,-0.59936 -0.394808,-0.92862 -0.09219,-0.32926 -0.138493,-0.69165 -0.138493,-1.08676 0,-1.02729 0.381784,-1.85009 1.145666,-2.4691 0.763883,-0.61901 1.784818,-0.92862 3.062346,-0.92862 1.857024,0 3.503144,0.50723 4.938717,1.52135 1.395371,0.97292 2.602507,2.27179 3.624587,3.89175 h 2.24534 v -11.06289 z m 10.44019,7.07192 c -0.921927,0 -1.646179,0.19762 -2.172994,0.59273 -0.513645,0.38194 -0.770496,0.90909 -0.770496,1.58078 0,0.39511 0.05924,0.74406 0.177767,1.04697 0.131704,0.28975 0.276554,0.5466 0.434599,0.77049 h 2.13372 6.749975 c -1.98723,-2.65846 -4.171024,-3.99097 -6.552571,-3.99097 z m -2.232422,5.39347 v 10.88564 h 9.304859 v -4.62297 l -5.037419,3.33881 -0.928626,-1.32395 4.859652,-2.94349 c -0.553157,-0.7112 -1.034007,-1.21145 -1.442289,-1.5012 -0.395112,-0.30292 -0.868979,-0.45475 -1.422136,-0.45475 -0.36877,0 -0.744089,0.0528 -1.126029,0.15813 -0.368771,0.10537 -0.823238,0.29652 -1.363225,0.57309 l -0.552937,-1.46192 c 0.447793,-0.21073 0.915193,-0.38844 1.402498,-0.5333 0.487304,-0.15805 1.020405,-0.2372 1.599902,-0.2372 0.526816,0 1.0012,0.0856 1.422652,0.25683 0.421453,0.15805 0.836086,0.42783 1.244369,0.80977 0.408282,0.36877 0.856283,0.86954 1.343588,1.50172 v -4.44521 h -7.269841 z m 10.905279,0 v 10.88564 h 1.79989 v -10.88564 z"
             inkscape:export-filename="tri_hindi_logo.png"
             inkscape:export-xdpi="96"
             inkscape:export-ydpi="96" />
          <rect
             style="fill:#fed1aa;stroke:none;stroke-width:0.448086;stroke-miterlimit:2.9;stroke-dashoffset:266.872"
             id="rect1"
             width="9.1662893"
             height="27.527576"
             x="109.38132"
             y="163.43459" />
          <path
             id="path33"
             style="font-size:19.7556px;font-family:'Noto Sans Devanagari UI';-inkscape-font-specification:'Noto Sans Devanagari UI';fill:#721c24;fill-opacity:1;stroke:none;stroke-width:3.14705;stroke-linecap:butt;stroke-linejoin:miter;stroke-miterlimit:2.9;stroke-dasharray:none;stroke-dashoffset:266.872;paint-order:normal"
             d="m 24.192555,94.22357 v 15.32413 c 0,7.17326 4.182197,11.86181 10.683585,11.86181 6.667029,0 11.139372,-4.78224 11.139372,-12.00237 v -4.93562 h -2.391069 v 10.88513 h -1.599902 v -4.62298 l -5.037935,3.33882 -2.640149,0.0398 6.571692,-4.30672 c -0.553157,-0.71117 -1.034008,-1.21196 -1.44229,-1.50171 -0.441064,-0.27576 -0.971916,-0.44084 -1.422135,-0.45424 -0.883346,-0.0263 -2.244433,0.009 -3.707267,1.44229 v -2.15026 c 2.785061,-1.53982 5.900417,-0.50195 7.678084,1.77457 v -4.44469 h -9.304858 v 10.88513 h -1.600419 v -10.88513 h -3.025656 v -1.40301 h 3.025656 c 0,0 -1.03e-4,-5.966563 6.192386,-5.966563 6.313497,0 6.312793,5.966563 6.312793,5.966563 h 2.391069 v -8.84494 z m 21.822957,8.84494 v 1.40301 h 0.928109 v 3.81269 c 0,0.84291 0.07915,1.50792 0.237194,1.99523 0.158045,0.47413 0.401449,0.88928 0.730705,1.24488 0.276579,0.27658 0.625512,0.50704 1.046965,0.69143 0.434619,0.17122 0.915474,0.25684 1.442289,0.25684 0.619006,0 1.152625,-0.0856 1.600419,-0.25684 0.447793,-0.17121 0.862427,-0.38228 1.244369,-0.63252 v 3.77342 h 1.600419 v -10.88513 h 3.516581 v 10.88513 h 1.599902 v -10.88513 h 7.487398 v 2.58796 c 0,0 -0.41498,-0.0966 -1.566829,0.19327 -1.15185,0.28985 -2.133965,1.01836 -2.581755,1.62419 -0.447786,0.59267 -0.671793,1.33036 -0.671793,2.21278 0,1.35655 0.454468,2.40986 1.363224,3.16053 0.908756,0.73754 2.107404,1.1064 3.595646,1.1064 0.869246,0 1.665669,-0.13192 2.390035,-0.39533 0.72437,-0.27658 1.304296,-0.69767 1.738912,-1.264 0.43462,-0.5795 0.65164,-1.33013 0.65164,-2.25206 0,-0.96144 -0.289708,-1.81114 -0.869198,-2.54868 -0.579496,-0.75071 -1.395836,-1.32365 -2.449462,-1.71876 v -2.7063 h 5.985681 v 10.88513 h 1.600419 v -10.88513 h 2.661336 v -1.40301 h -2.661336 c 0,0 -0.0202,-5.990851 -4.603337,-5.990851 -4.58312,0 -4.583183,5.990851 -4.583183,5.990851 z m 26.037687,-4.496368 c 1.491509,0.0013 2.982764,1.501478 2.982764,4.496368 h -5.966044 c 0,-3.00027 1.491773,-4.497713 2.98328,-4.496368 z m -34.69814,0.01137 c -2.317684,3e-6 -4.635376,1.495118 -4.635376,4.484998 h 9.270752 c 0,-2.98989 -2.317694,-4.485 -4.635376,-4.484998 z m 11.188981,5.888008 h 4.701522 v 5.35368 c -0.32926,0.32926 -0.724494,0.61896 -1.185458,0.8692 -0.46096,0.25023 -0.954751,0.37517 -1.481563,0.37517 -0.658517,0 -1.139374,-0.15133 -1.442289,-0.45424 -0.144875,-0.14488 -0.263344,-0.30964 -0.355534,-0.49402 -0.07902,-0.19756 -0.138257,-0.45441 -0.177767,-0.7705 -0.03951,-0.31609 -0.05891,-0.74417 -0.05891,-1.28416 z m 19.00039,3.84783 c 0.940313,-0.008 1.638307,0.42166 1.919263,0.62839 0.283027,0.20826 0.545942,0.50805 0.732255,0.75861 0.38194,0.50047 0.573092,1.06694 0.573092,1.69912 0,0.88241 -0.309616,1.52802 -0.928626,1.93631 -0.619006,0.39511 -1.396038,0.59273 -2.331124,0.59273 -0.948266,0 -1.738748,-0.224 -2.370914,-0.67179 -0.61901,-0.44779 -0.928626,-1.13273 -0.928626,-2.05466 0,-0.51364 0.10553,-0.94818 0.31626,-1.30379 0.2239,-0.36877 0.520065,-0.66549 0.888835,-0.88935 0.619005,-0.36877 1.10681,-0.57535 1.712557,-0.66353 0.143705,-0.0209 0.282698,-0.0309 0.417028,-0.032 z"
             sodipodi:nodetypes="cssscccccccccscccccccccccscccccccscccssccccccccccscscsccsccccccccccsccccccsccscccssscsscsscscscsccss" />
          <rect
             style="fill:#fed1aa;stroke:none;stroke-width:0.595321;stroke-miterlimit:2.9;stroke-dashoffset:266.872"
             id="rect2"
             width="49.310009"
             height="1.5408258"
             x="71.292488"
             y="172.82927" />
          <path
             d="m 73.050736,142.05815 h -1.758248 v -1.40264 h 1.580448 q -0.237067,-0.43463 -0.395112,-0.92852 -0.138289,-0.49389 -0.138289,-1.08655 0,-1.54094 1.145825,-2.46945 1.145824,-0.92852 3.062118,-0.92852 2.785539,0 4.9389,1.52118 2.15336,1.50143 3.714052,4.03015 h -1.65947 q -3.022607,-4.12892 -6.657637,-4.12892 -1.382892,0 -2.173116,0.59266 -0.770469,0.57292 -0.770469,1.58045 0,0.59267 0.177801,1.04705 0.197556,0.43462 0.434623,0.77047 h 2.133605 v 1.40264 H 74.65094 v 10.88534 h -1.600204 z m 5.867429,9.60123 -0.928513,-1.32363 4.859878,-2.94358 q -0.829736,-1.06681 -1.442159,-1.50143 -0.592668,-0.45438 -1.422403,-0.45438 -0.553157,0 -1.12607,0.15805 -0.553156,0.15804 -1.363136,0.57291 l -0.553157,-1.46192 q 0.671691,-0.31609 1.402648,-0.5334 0.730957,-0.23706 1.600203,-0.23706 0.790224,0 1.422404,0.25682 0.632179,0.23707 1.244602,0.80998 0.612424,0.55316 1.343381,1.50142 v -4.44501 h -7.546639 v -1.40264 h 11.18167 v 1.40264 h -2.034827 v 10.88534 h -1.600204 v -4.62281 z m 17.859064,-9.60123 v 10.88534 h -1.600203 v -3.77332 q -0.572913,0.37536 -1.244603,0.63218 -0.671691,0.25682 -1.600204,0.25682 -0.790224,0 -1.442159,-0.25682 -0.632179,-0.27658 -1.047046,-0.69145 -0.49389,-0.5334 -0.730958,-1.2446 -0.237067,-0.73096 -0.237067,-1.99532 v -3.81283 h -1.560692 v -1.40264 h 11.517515 v 1.40264 z m -1.600203,0 h -4.701833 v 3.59552 q 0,0.80998 0.05927,1.28412 0.05927,0.47413 0.1778,0.77047 0.138289,0.27657 0.355601,0.49389 0.454379,0.45437 1.442159,0.45437 0.790224,0 1.48167,-0.37535 0.691446,-0.37536 1.185336,-0.86925 z m 6.716914,0 v 10.88534 h -1.6002 v -10.88534 h -1.758248 v -1.40264 h 5.393278 v 1.40264 z m 13.61163,0 h -4.52404 v 2.70652 q 1.58045,0.59267 2.4497,1.71874 0.86924,1.10631 0.86924,2.54847 0,1.38289 -0.65193,2.25214 -0.65193,0.84949 -1.73849,1.26436 -1.08656,0.39511 -2.39043,0.39511 -2.23238,0 -3.59552,-1.10631 -1.36314,-1.12607 -1.36314,-3.1609 0,-1.32363 0.67169,-2.21263 0.67169,-0.90875 1.75825,-1.36313 1.10632,-0.45438 2.33116,-0.45438 h 0.0593 v -2.58799 h -5.72912 v -1.40264 h 11.85336 z m -6.06497,9.46294 q 1.40264,0 2.33116,-0.59267 0.92851,-0.61243 0.92851,-1.93605 0,-0.94827 -0.57291,-1.69898 -0.57291,-0.77047 -1.69898,-1.2446 h -0.69145 q -1.46191,0 -2.39043,0.55315 -0.55315,0.33585 -0.889,0.889 -0.31609,0.53341 -0.31609,1.30387 0,1.3829 0.92852,2.05459 0.94826,0.67169 2.37067,0.67169 z m 7.52687,-9.46294 h -1.75825 v -1.40264 h 1.67922 q -0.94827,-2.05459 -1.99531,-3.02261 -1.04705,-0.98778 -2.41019,-0.98778 -1.02729,0 -1.58044,0.5334 -0.57292,0.5334 -0.57292,1.44216 0,0.65193 0.21732,1.18534 0.19755,0.51364 0.45437,0.98778 h -1.61995 q -0.31609,-0.59267 -0.47414,-1.18534 -0.1778,-0.59267 -0.1778,-1.2446 0,-1.40265 0.94827,-2.25214 0.94827,-0.86925 2.62749,-0.86925 2.15336,0 3.59552,1.36314 1.44216,1.34338 2.54848,4.0499 h 2.15336 v 1.40264 h -2.03483 v 10.88534 h -1.6002 z"
             id="path1"
             style="font-size:19.7556px;font-family:'Noto Sans Devanagari UI';-inkscape-font-specification:'Noto Sans Devanagari UI';fill:#721c24;stroke:none;stroke-width:0.7;stroke-dashoffset:266.872"
             aria-label="त्रिपाठी" />
          <path
             d="m 73.050736,186.50843 h -1.758248 v -1.40264 h 1.652782 c 0,0 0.106143,-5.87257 6.297983,-5.96662 6.312793,-0.0959 6.312793,5.85574 6.341675,6.10491 h -1.65947 c 0,-6.12949 -9.373296,-6.12949 -9.373296,-0.13829 h 2.133605 v 1.40264 H 74.65094 v 10.88534 h -1.600204 z m 6.252655,10.88534 h -2.150519 l 5.696658,-5.55132 -5.984936,-2.17084 v -1.59369 l 7.091249,2.58213 v -4.15162 h -7.546639 v -1.40264 h 11.18167 v 1.40264 h -2.034827 v 10.88534 h -1.600204 v -4.62281 z m 17.473838,-10.88534 v 10.88534 h -1.600203 v -3.77332 c -0.381942,0.25024 -0.79681,0.46097 -1.244603,0.63218 -0.447794,0.17121 -0.981195,0.25682 -1.600204,0.25682 -0.526816,0 -1.007536,-0.0856 -1.442159,-0.25682 -0.421453,-0.18439 -0.770468,-0.41487 -1.047046,-0.69145 -0.32926,-0.3556 -0.572913,-0.77047 -0.730958,-1.2446 -0.158045,-0.48731 -0.237067,-1.15241 -0.237067,-1.99532 v -3.81283 h -1.560692 v -1.40264 h 11.517515 v 1.40264 z m -1.600203,0 h -4.701833 v 3.59552 c 0,0.53999 0.01976,0.96803 0.05927,1.28412 0.03951,0.31609 0.09878,0.57291 0.1778,0.77047 0.09219,0.18438 0.210726,0.34901 0.355601,0.49389 0.302919,0.30291 0.783639,0.45437 1.442159,0.45437 0.526816,0 1.020706,-0.12512 1.48167,-0.37535 0.460964,-0.25024 0.856076,-0.53999 1.185336,-0.86925 z m 6.716914,0 v 10.88534 h -1.6002 v -10.88534 h -1.758248 v -1.40264 h 5.393278 v 1.40264 z m 13.61163,0 h -4.52404 v 2.70652 c 1.05363,0.39511 1.8702,0.96803 2.4497,1.71874 0.57949,0.73754 0.86924,1.58703 0.86924,2.54847 0,0.92193 -0.21731,1.67264 -0.65193,2.25214 -0.43462,0.56633 -1.01412,0.98778 -1.73849,1.26436 -0.72437,0.26341 -1.52118,0.39511 -2.39043,0.39511 -1.48825,0 -2.68676,-0.36877 -3.59552,-1.10631 -0.90876,-0.75071 -1.36314,-1.80435 -1.36314,-3.1609 0,-0.88242 0.2239,-1.61996 0.67169,-2.21263 0.44779,-0.60583 1.03388,-1.06021 1.75825,-1.36313 0.73755,-0.30292 1.5146,-0.45438 2.33116,-0.45438 h 0.0593 v -2.58799 h -5.72912 v -1.40264 h 11.85336 z m -6.06497,9.46294 c 0.93509,0 1.71215,-0.19756 2.33116,-0.59267 0.61901,-0.40829 0.92851,-1.05364 0.92851,-1.93605 0,-0.63218 -0.19097,-1.19851 -0.57291,-1.69898 -0.38194,-0.51365 -0.94827,-0.92851 -1.69898,-1.2446 h -0.69145 c -0.97461,0 -1.77142,0.18438 -2.39043,0.55315 -0.36877,0.2239 -0.6651,0.52023 -0.889,0.889 -0.21073,0.35561 -0.31609,0.79023 -0.31609,1.30387 0,0.92193 0.30951,1.6068 0.92852,2.05459 0.63217,0.44779 1.4224,0.67169 2.37067,0.67169 z m 7.52687,-9.46294 h -1.75825 v -1.40264 h 1.67922 c 0,-5.9912 -5.88717,-5.9912 -5.88717,0.13829 h -1.61995 c 0,0 0,-6.12948 4.58314,-6.12948 4.58315,0 4.48468,5.99119 4.48468,5.99119 h 2.15336 v 1.40264 h -2.03483 v 10.88534 h -1.6002 z"
             id="path2"
             style="font-size:19.7556px;font-family:'Noto Sans Devanagari UI';-inkscape-font-specification:'Noto Sans Devanagari UI';fill:#721c24;stroke:none;stroke-width:0.7;stroke-dashoffset:266.872"
             aria-label="त्रिपाठी"
             sodipodi:nodetypes="ccccscccccccccccccccccccccccccccccsscccsccccccccsscssscccccccccccccccsccscsccsccccccscsccsccscsccccccsccccccc" />
          <rect
             style="fill:#fed1aa;stroke:none;stroke-width:0.7;stroke-miterlimit:2.9;stroke-dashoffset:266.872"
             id="rect4"
             width="9.304903"
             height="6.0159282e-14"
             x="74.65094"
             y="197.39377" />
          <rect
             style="fill:#fed1aa;stroke:none;stroke-width:0.7;stroke-miterlimit:2.9;stroke-dashoffset:266.872"
             id="rect8"
             width="1.1063099"
             height="0.92850703"
             x="67.596321"
             y="193.47055" />
          <path
             style="fill:#5a9cfe;fill-opacity:1;stroke:none;stroke-width:1.411;stroke-miterlimit:2.9;stroke-dasharray:none;stroke-dashoffset:266.872"
             d="M 36.045344,107.96279 V 123.2076"
             id="path32" />
          <path
             id="path34"
             style="font-size:19.7556px;font-family:'Noto Sans Devanagari UI';-inkscape-font-specification:'Noto Sans Devanagari UI';fill:#721c24;stroke:none;stroke-width:0.7;stroke-dashoffset:266.872"
             d="m 150.96906,98.8233 c -4.58312,0 -4.58318,5.99085 -4.58318,5.99085 h -23.82542 c 0,0 7.1e-4,-5.966562 -6.31279,-5.966562 -6.1925,0 -6.19239,5.966562 -6.19239,5.966562 h -3.02565 v 1.40301 h 3.02565 v 10.88513 h 1.60042 v -10.88513 h 9.30486 v 4.44469 c -1.77767,-2.27653 -4.89302,-3.3144 -7.67809,-1.77457 v 2.15026 c 1.46284,-1.43319 2.82392,-1.46859 3.70727,-1.44229 0.45022,0.0134 0.98107,0.17848 1.42214,0.45424 0.40828,0.28975 0.88913,0.79053 1.44229,1.50171 l -6.5717,4.30672 2.64015,-0.0398 5.03794,-3.33882 v 4.62298 h 1.5999 v -10.88513 h 3.31918 v 3.81269 c 0,0.84291 0.0791,1.50792 0.23719,1.99523 0.15805,0.47413 0.40145,0.88928 0.73071,1.24488 0.27658,0.27658 0.62551,0.50704 1.04696,0.69143 0.43462,0.17122 0.91548,0.25684 1.44229,0.25684 0.61901,0 1.15263,-0.0856 1.60042,-0.25684 0.44779,-0.17121 0.86243,-0.38228 1.24437,-0.63252 v 3.77342 h 1.60042 v -10.88513 h 3.51658 v 10.88513 h 1.5999 v -10.88513 h 7.4874 v 2.58796 0 c 0,0 -0.41498,-0.0966 -1.56683,0.19328 -1.15185,0.28985 -2.13397,1.01835 -2.58176,1.62418 -0.44778,0.59267 -0.67179,1.33036 -0.67179,2.21278 0,1.35655 0.45447,2.40985 1.36322,3.16053 0.90876,0.73754 2.10741,1.1064 3.59565,1.1064 0.86925,0 1.66567,-0.13192 2.39003,-0.39533 0.72437,-0.27658 1.3043,-0.69767 1.73892,-1.264 0.43462,-0.5795 0.65164,-1.33013 0.65164,-2.25206 0,-0.96144 -0.28971,-1.81114 -0.8692,-2.54868 -0.5795,-0.75071 -1.39584,-1.32365 -2.44946,-1.71876 v -2.7063 h 5.98568 v 10.88513 h 1.60042 v -10.88513 h 2.66133 v -1.40301 h -2.66133 c 0,0 -0.0202,-5.990851 -4.60334,-5.990851 z m 0.0202,1.49448 c 1.49151,0.001 2.98277,1.50148 2.98277,4.49637 h -5.96605 c 0,-3.00027 1.49177,-4.49771 2.98328,-4.49637 z m -34.69814,0.0114 c 2.31769,0 4.63538,1.49511 4.63538,4.485 h -9.27075 c 0,-2.98988 2.31769,-4.48499 4.63537,-4.485 z m 11.18898,5.88801 h 4.70153 v 5.35368 c -0.32926,0.32926 -0.7245,0.61896 -1.18546,0.8692 -0.46096,0.25023 -0.95475,0.37517 -1.48157,0.37517 -0.65851,0 -1.13937,-0.15133 -1.44228,-0.45424 -0.14488,-0.14488 -0.26335,-0.30964 -0.35554,-0.49402 -0.079,-0.19756 -0.13826,-0.45441 -0.17777,-0.7705 -0.0395,-0.31609 -0.0589,-0.74417 -0.0589,-1.28416 z m 18.58314,3.87986 c 1.14964,-0.1674 2.01562,0.36019 2.33671,0.59645 0.28303,0.20826 0.54575,0.50796 0.73206,0.75852 0.38194,0.50047 0.57309,1.06694 0.57309,1.69912 0,0.88241 -0.30961,1.52802 -0.92862,1.93631 -0.61901,0.39511 -1.39604,0.59273 -2.33113,0.59273 -0.94826,0 -1.73874,-0.224 -2.37091,-0.67179 -0.61901,-0.44779 -0.92863,-1.13273 -0.92863,-2.05466 0,-0.51364 0.10553,-0.94818 0.31626,-1.30379 0.2239,-0.36877 0.52007,-0.66548 0.88884,-0.88935 0.619,-0.36877 1.10658,-0.57536 1.71233,-0.66354 z"
             sodipodi:nodetypes="sccscccccccccccscccccccccscccssccccccccccszcscsccsccccccccccssscssccscacssscsscascscscsccas"
             inkscape:export-filename="text1.png"
             inkscape:export-xdpi="96"
             inkscape:export-ydpi="96" />
          <path
             id="path35"
             style="font-size:19.7556px;font-family:'Noto Sans Devanagari UI';-inkscape-font-specification:'Noto Sans Devanagari UI';fill:#721c24;fill-opacity:1;stroke:none;stroke-width:3.14705;stroke-linecap:butt;stroke-linejoin:miter;stroke-miterlimit:2.9;stroke-dasharray:none;stroke-dashoffset:266.872;paint-order:normal"
             d="m 1.4383879,132.32357 v 15.32413 c 0,7.17325 4.1822053,11.86181 10.6835851,11.86181 6.667023,0 11.139372,-4.78225 11.139372,-12.00237 v -4.93562 h -2.391068 v 10.88513 h -1.599903 v -4.62298 l -5.037935,3.33882 -2.640149,0.0398 6.571692,-4.30672 c -0.553157,-0.71116 -1.034008,-1.21196 -1.442289,-1.50171 -0.441064,-0.27576 -0.971917,-0.44084 -1.422136,-0.45424 -0.883345,-0.0263 -2.244434,0.009 -3.707267,1.44229 v -2.15026 c 2.785058,-1.53981 5.900419,-0.50194 7.678084,1.77457 v -4.44469 H 9.965516 v 10.88513 H 8.3650968 V 142.57152 H 5.3394417 v -1.40301 h 3.0256551 c 0,0 -9.47e-5,-5.96656 6.1923872,-5.96656 6.31349,0 6.312793,5.96656 6.312793,5.96656 h 2.391068 v -0.2651 -8.57984 z m 13.1625041,4.35994 c -2.317682,10e-6 -4.635376,1.49512 -4.635376,4.485 h 9.270752 c 0,-2.98989 -2.317696,-4.485 -4.635376,-4.485 z"
             inkscape:export-filename="Dev/MyPortfolio/static/images/utri_logo.png"
             inkscape:export-xdpi="96"
             inkscape:export-ydpi="96" />
        </g>
      </g>
    </g>
  </g>
</svg>
