<?xml version="1.0" encoding="UTF-8" standalone="no"?>
<!-- Created with Inkscape (http://www.inkscape.org/) -->

<svg
   version="1.1"
   id="svg1"
   width="193.63783"
   height="193.34531"
   viewBox="0 0 193.63783 193.34531"
   sodipodi:docname="linkedin.svg"
   inkscape:version="1.3 (0e150ed6c4, 2023-07-21)"
   xmlns:inkscape="http://www.inkscape.org/namespaces/inkscape"
   xmlns:sodipodi="http://sodipodi.sourceforge.net/DTD/sodipodi-0.dtd"
   xmlns="http://www.w3.org/2000/svg"
   xmlns:svg="http://www.w3.org/2000/svg">
  <defs
     id="defs1" />
  <sodipodi:namedview
     id="namedview1"
     pagecolor="#ffffff"
     bordercolor="#111111"
     borderopacity="1"
     inkscape:showpageshadow="0"
     inkscape:pageopacity="0"
     inkscape:pagecheckerboard="1"
     inkscape:deskcolor="#d1d1d1"
     inkscape:zoom="2.5183512"
     inkscape:cx="64.724889"
     inkscape:cy="133.42063"
     inkscape:window-width="1920"
     inkscape:window-height="1022"
     inkscape:window-x="0"
     inkscape:window-y="26"
     inkscape:window-maximized="1"
     inkscape:current-layer="g1" />
  <g
     id="g1"
     inkscape:groupmode="layer"
     inkscape:label="1"
     transform="translate(0.84104949,0.62562799)">
    <path
       id="path3"
       style="fill:#000000;stroke:none;stroke-width:1.70502;stroke-linejoin:round;stroke-miterlimit:2.9;stroke-dashoffset:266.872"
       d="M 96.873053,-0.59223372 C 21.198021,-0.67120299 11.762108,-0.6230729 9.9266477,-0.15285164 4.4416639,1.2523363 0.32880037,5.9588343 -0.49438871,11.773511 c -0.46221437,3.264906 -0.46221437,165.189809 0,168.454719 0.8085614,5.71134 4.91577161,10.47014 10.28311461,11.91453 2.8152121,0.75758 169.3687641,0.77476 172.2751641,0.0178 5.68639,-1.48113 9.65752,-6.14376 10.45453,-12.27313 0.23962,-1.84266 0.32293,-29.67651 0.25614,-85.762255 -0.0931,-78.195493 -0.13465,-83.137273 -0.69946,-84.790863 -1.36365,-3.9922908 -4.66576,-7.5216927 -8.51179,-9.09894952 l -1.80088,-0.7388913 z M 42.456678,25.26431 c 1.315673,0.01258 2.661177,0.17234 4.019453,0.492581 2.960541,0.698006 5.129522,1.872833 7.497077,4.064776 3.395235,3.143387 5.197718,7.412511 5.197718,12.300724 0,4.888214 -1.802483,9.155366 -5.197718,12.298754 -2.367555,2.191941 -4.536536,3.368738 -7.497077,4.066746 C 35.393669,61.100805 25.327982,53.159486 25.431113,41.883982 25.518879,32.288284 33.246932,25.17622 42.456678,25.26431 Z m 89.549192,43.727371 c 2.60995,0.07357 5.2363,0.436782 7.81824,1.109292 12.63115,3.289999 20.78581,12.254452 23.51974,25.856546 1.00593,5.004791 1.18201,10.903401 1.19008,39.684261 l 0.008,28.73126 H 149.72116 134.9004 l -0.11428,-28.55984 c -0.10488,-26.29576 -0.16097,-28.72115 -0.72508,-30.60502 -2.1228,-7.089215 -5.77203,-10.297528 -12.11946,-10.659447 -5.36114,-0.305678 -9.04743,1.051225 -12.67903,4.667698 -2.53769,2.527139 -3.76634,4.688369 -4.82728,8.496039 -0.70888,2.54413 -0.72934,3.29375 -0.85118,29.63562 l -0.1261,27.02495 H 88.816402 74.174936 V 117.99557 71.618121 h 14.152831 14.150853 v 6.389757 6.389752 l 1.15263,-1.700381 c 6.03678,-8.909563 17.06483,-14.024374 28.37462,-13.705568 z m -104.547291,2.62644 h 14.832594 14.834551 v 46.377449 46.37747 H 42.291173 27.458579 v -46.37747 z" />
  </g>
</svg>
